<svg width="80" height="80" viewBox="0 0 80 80" fill="none" xmlns="http://www.w3.org/2000/svg">
<path d="M34.3115 35.3008V36.729C34.3115 39.1606 33.9746 41.3433 33.3008 43.2769C32.6416 45.2104 31.6968 46.8584 30.4663 48.2207C29.2505 49.583 27.8003 50.6304 26.1157 51.3628C24.4458 52.0806 22.5928 52.4395 20.5566 52.4395C18.5205 52.4395 16.6602 52.0806 14.9756 51.3628C13.291 50.6304 11.8262 49.583 10.5811 48.2207C9.35059 46.8584 8.39844 45.2104 7.72461 43.2769C7.05078 41.3433 6.71387 39.1606 6.71387 36.729V35.3008C6.71387 32.8691 7.05078 30.6865 7.72461 28.7529C8.39844 26.8047 9.34326 25.1494 10.5591 23.7871C11.7896 22.4248 13.2471 21.3848 14.9316 20.667C16.6162 19.9346 18.4766 19.5684 20.5127 19.5684C22.5488 19.5684 24.4092 19.9346 26.0938 20.667C27.7783 21.3848 29.2285 22.4248 30.4443 23.7871C31.6748 25.1494 32.627 26.8047 33.3008 28.7529C33.9746 30.6865 34.3115 32.8691 34.3115 35.3008ZM27.0825 36.729V35.2568C27.0825 33.6309 26.936 32.1953 26.6431 30.9502C26.3501 29.6904 25.9253 28.6357 25.3687 27.7861C24.812 26.9365 24.1235 26.2993 23.3032 25.8745C22.4829 25.4351 21.5527 25.2153 20.5127 25.2153C19.4287 25.2153 18.4839 25.4351 17.6782 25.8745C16.8726 26.2993 16.1914 26.9365 15.6348 27.7861C15.0928 28.6357 14.6753 29.6904 14.3823 30.9502C14.104 32.1953 13.9648 33.6309 13.9648 35.2568V36.729C13.9648 38.3403 14.104 39.7759 14.3823 41.0356C14.6753 42.2808 15.1001 43.3354 15.6567 44.1997C16.2134 45.064 16.8945 45.7158 17.7002 46.1553C18.5205 46.5947 19.4727 46.8145 20.5566 46.8145C21.5967 46.8145 22.5195 46.5947 23.3252 46.1553C24.1455 45.7158 24.834 45.064 25.3906 44.1997C25.9473 43.3354 26.3647 42.2808 26.6431 41.0356C26.936 39.7759 27.0825 38.3403 27.0825 36.729Z" fill="#155B90"/>
<path d="M42.4248 55.1792H34.207L34.1631 50.3892H40.9526C42.1538 50.3892 43.1279 50.2427 43.875 49.9497C44.6367 49.6567 45.1934 49.2319 45.5449 48.6753C45.8965 48.104 46.0723 47.4009 46.0723 46.5659C46.0723 45.6138 45.8965 44.8447 45.5449 44.2588C45.1934 43.6729 44.6367 43.248 43.875 42.9844C43.1279 42.7061 42.1611 42.5669 40.9746 42.5669H36.7998V69H29.6367V37.0078H40.9746C42.8936 37.0078 44.6074 37.1836 46.1162 37.5352C47.625 37.8867 48.9067 38.4287 49.9614 39.1611C51.0308 39.8936 51.8438 40.8091 52.4004 41.9077C52.957 43.0063 53.2354 44.3027 53.2354 45.7969C53.2354 47.1006 52.9424 48.3164 52.3564 49.4443C51.7852 50.5723 50.8623 51.4878 49.5879 52.1909C48.3135 52.894 46.6069 53.2749 44.4683 53.3335L42.4248 55.1792ZM42.1392 69H32.3833L34.9761 63.4629H42.1392C43.2378 63.4629 44.1313 63.2871 44.8198 62.9355C45.5083 62.584 46.0137 62.1079 46.3359 61.5073C46.6582 60.9067 46.8193 60.2329 46.8193 59.4858C46.8193 58.6069 46.6655 57.8452 46.3579 57.2007C46.0649 56.5562 45.5962 56.0581 44.9517 55.7065C44.3218 55.355 43.4795 55.1792 42.4248 55.1792H36.0088L36.0527 50.3892H43.897L45.5669 52.2788C47.603 52.2349 49.229 52.5645 50.4448 53.2676C51.6753 53.9561 52.5615 54.8643 53.1035 55.9922C53.6455 57.1201 53.9165 58.314 53.9165 59.5737C53.9165 61.6538 53.4697 63.397 52.5762 64.8032C51.6826 66.1948 50.3569 67.2422 48.5991 67.9453C46.856 68.6484 44.7026 69 42.1392 69Z" fill="white"/>
<path d="M41.4907 32.0684V10.0078H48.6099V32.0684C48.6099 34.207 48.1265 36.0527 47.1597 37.6055C46.2075 39.1436 44.9111 40.3374 43.2705 41.187C41.6445 42.022 39.8062 42.4395 37.7554 42.4395C35.646 42.4395 33.771 42.0879 32.1304 41.3848C30.4897 40.667 29.2007 39.5757 28.2632 38.1108C27.3403 36.6313 26.8789 34.749 26.8789 32.4639H34.042C34.042 33.5918 34.1812 34.4854 34.4595 35.1445C34.7524 35.7891 35.1772 36.2432 35.7339 36.5068C36.2905 36.7705 36.9644 36.9023 37.7554 36.9023C38.5171 36.9023 39.1763 36.7192 39.7329 36.353C40.2896 35.9722 40.7217 35.4229 41.0293 34.7051C41.3369 33.9727 41.4907 33.0938 41.4907 32.0684Z" fill="#FFB900"/>
<path d="M58.3203 63.9551H59.252C59.5176 63.9551 59.7363 63.9082 59.9082 63.8145C60.084 63.7207 60.2129 63.5879 60.2949 63.416C60.3809 63.2441 60.4238 63.043 60.4238 62.8125C60.4238 62.6133 60.3848 62.4355 60.3066 62.2793C60.2285 62.123 60.1094 62 59.9492 61.9102C59.793 61.8164 59.5898 61.7695 59.3398 61.7695C59.1602 61.7695 58.9883 61.8066 58.8242 61.8809C58.6641 61.9512 58.5332 62.0547 58.4316 62.1914C58.3301 62.3242 58.2793 62.4844 58.2793 62.6719H56.4453C56.4453 62.1953 56.5742 61.7832 56.832 61.4355C57.0938 61.0879 57.4395 60.8203 57.8691 60.6328C58.3027 60.4414 58.7754 60.3457 59.2871 60.3457C59.877 60.3457 60.3945 60.4395 60.8398 60.627C61.2891 60.8105 61.6367 61.084 61.8828 61.4473C62.1328 61.8066 62.2578 62.252 62.2578 62.7832C62.2578 63.0605 62.1914 63.3281 62.0586 63.5859C61.9297 63.8398 61.7441 64.0664 61.502 64.2656C61.2637 64.4609 60.9785 64.6172 60.6465 64.7344C60.3184 64.8477 59.9531 64.9043 59.5508 64.9043H58.3203V63.9551ZM58.3203 65.332V64.4004H59.5508C59.9961 64.4004 60.3945 64.4512 60.7461 64.5527C61.0977 64.6543 61.3965 64.8008 61.6426 64.9922C61.8887 65.1836 62.0762 65.416 62.2051 65.6895C62.334 65.9629 62.3984 66.2676 62.3984 66.6035C62.3984 67.002 62.3203 67.3574 62.1641 67.6699C62.0078 67.9824 61.7891 68.2461 61.5078 68.4609C61.2266 68.6758 60.8965 68.8398 60.5176 68.9531C60.1387 69.0625 59.7285 69.1172 59.2871 69.1172C58.9316 69.1172 58.5781 69.0684 58.2266 68.9707C57.875 68.873 57.5566 68.7246 57.2715 68.5254C56.9863 68.3223 56.7578 68.0664 56.5859 67.7578C56.4141 67.4453 56.3281 67.0742 56.3281 66.6445H58.1621C58.1621 66.8438 58.2129 67.0234 58.3145 67.1836C58.4199 67.3398 58.5625 67.4648 58.7422 67.5586C58.9258 67.6484 59.125 67.6934 59.3398 67.6934C59.5977 67.6934 59.8164 67.6465 59.9961 67.5527C60.1797 67.4551 60.3184 67.3223 60.4121 67.1543C60.5098 66.9863 60.5586 66.793 60.5586 66.5742C60.5586 66.2773 60.5059 66.0391 60.4004 65.8594C60.2988 65.6758 60.1504 65.543 59.9551 65.4609C59.7598 65.375 59.5254 65.332 59.252 65.332H58.3203ZM66.3301 69H64.4551L64.4668 67.5234H66.3301C66.7559 67.5234 67.1152 67.4258 67.4082 67.2305C67.7012 67.0312 67.9238 66.7383 68.0762 66.3516C68.2285 65.9609 68.3047 65.4863 68.3047 64.9277V64.5352C68.3047 64.1133 68.2617 63.7422 68.1758 63.4219C68.0898 63.0977 67.9629 62.8262 67.7949 62.6074C67.627 62.3887 67.418 62.2246 67.168 62.1152C66.9219 62.0059 66.6387 61.9512 66.3184 61.9512H64.4199V60.4688H66.3184C66.8965 60.4688 67.4238 60.5664 67.9004 60.7617C68.3809 60.957 68.7949 61.2363 69.1426 61.5996C69.4941 61.9629 69.7656 62.3926 69.957 62.8887C70.1484 63.3848 70.2441 63.9375 70.2441 64.5469V64.9277C70.2441 65.5332 70.1484 66.0859 69.957 66.5859C69.7656 67.082 69.4941 67.5117 69.1426 67.875C68.7949 68.2344 68.3828 68.5117 67.9062 68.707C67.4297 68.9023 66.9043 69 66.3301 69ZM65.5391 60.4688V69H63.6289V60.4688H65.5391Z" fill="white"/>
</svg>
